<svg width="140" height="36" viewBox="0 0 140 36" fill="none" xmlns="http://www.w3.org/2000/svg">
<path d="M41.52 18.5H44.7C45.26 18.5 45.72 18.3667 46.08 18.1C46.44 17.8333 46.62 17.4 46.62 16.8C46.62 16.4667 46.56 16.1933 46.44 15.98C46.32 15.7667 46.16 15.6 45.96 15.48C45.76 15.36 45.5267 15.28 45.26 15.24C45.0067 15.1867 44.74 15.16 44.46 15.16H41.52V18.5ZM38.38 12.72H45.1C45.78 12.72 46.4 12.78 46.96 12.9C47.52 13.02 48 13.22 48.4 13.5C48.8 13.7667 49.1067 14.1267 49.32 14.58C49.5467 15.0333 49.66 15.5933 49.66 16.26C49.66 16.98 49.4933 17.58 49.16 18.06C48.84 18.54 48.36 18.9333 47.72 19.24C48.6 19.4933 49.2533 19.94 49.68 20.58C50.12 21.2067 50.34 21.9667 50.34 22.86C50.34 23.58 50.2 24.2067 49.92 24.74C49.64 25.26 49.26 25.6867 48.78 26.02C48.3133 26.3533 47.7733 26.6 47.16 26.76C46.56 26.92 45.94 27 45.3 27H38.38V12.72ZM41.52 24.56H44.88C45.1867 24.56 45.48 24.5333 45.76 24.48C46.04 24.4133 46.2867 24.3133 46.5 24.18C46.7133 24.0333 46.88 23.84 47 23.6C47.1333 23.36 47.2 23.0533 47.2 22.68C47.2 21.9467 46.9933 21.4267 46.58 21.12C46.1667 20.8 45.62 20.64 44.94 20.64H41.52V24.56ZM61.262 27H58.562V25.56H58.502C58.142 26.16 57.6754 26.5933 57.102 26.86C56.5287 27.1267 55.942 27.26 55.342 27.26C54.582 27.26 53.9554 27.16 53.462 26.96C52.982 26.76 52.602 26.48 52.322 26.12C52.042 25.7467 51.842 25.3 51.722 24.78C51.6154 24.2467 51.562 23.66 51.562 23.02V16.66H54.402V22.5C54.402 23.3533 54.5354 23.9933 54.802 24.42C55.0687 24.8333 55.542 25.04 56.222 25.04C56.9954 25.04 57.5554 24.8133 57.902 24.36C58.2487 23.8933 58.422 23.1333 58.422 22.08V16.66H61.262V27ZM65.0175 23.64C65.0175 23.9467 65.0775 24.2133 65.1975 24.44C65.3308 24.6533 65.4975 24.8333 65.6975 24.98C65.8975 25.1133 66.1242 25.2133 66.3775 25.28C66.6442 25.3467 66.9175 25.38 67.1975 25.38C67.3975 25.38 67.6042 25.36 67.8175 25.32C68.0442 25.2667 68.2442 25.1933 68.4175 25.1C68.6042 24.9933 68.7575 24.86 68.8775 24.7C68.9975 24.5267 69.0575 24.3133 69.0575 24.06C69.0575 23.6333 68.7708 23.3133 68.1975 23.1C67.6375 22.8867 66.8508 22.6733 65.8375 22.46C65.4242 22.3667 65.0175 22.26 64.6175 22.14C64.2308 22.0067 63.8842 21.84 63.5775 21.64C63.2708 21.4267 63.0242 21.1667 62.8375 20.86C62.6508 20.54 62.5575 20.1533 62.5575 19.7C62.5575 19.0333 62.6842 18.4867 62.9375 18.06C63.2042 17.6333 63.5508 17.3 63.9775 17.06C64.4042 16.8067 64.8842 16.6333 65.4175 16.54C65.9508 16.4333 66.4975 16.38 67.0575 16.38C67.6175 16.38 68.1575 16.4333 68.6775 16.54C69.2108 16.6467 69.6842 16.8267 70.0975 17.08C70.5108 17.3333 70.8508 17.6733 71.1175 18.1C71.3975 18.5133 71.5642 19.04 71.6175 19.68H68.9175C68.8775 19.1333 68.6708 18.7667 68.2975 18.58C67.9242 18.38 67.4842 18.28 66.9775 18.28C66.8175 18.28 66.6442 18.2933 66.4575 18.32C66.2708 18.3333 66.0975 18.3733 65.9375 18.44C65.7908 18.5067 65.6642 18.6067 65.5575 18.74C65.4508 18.86 65.3975 19.0267 65.3975 19.24C65.3975 19.4933 65.4908 19.7 65.6775 19.86C65.8642 20.02 66.1042 20.1533 66.3975 20.26C66.7042 20.3533 67.0508 20.44 67.4375 20.52C67.8242 20.6 68.2175 20.6867 68.6175 20.78C69.0308 20.8733 69.4308 20.9867 69.8175 21.12C70.2175 21.2533 70.5708 21.4333 70.8775 21.66C71.1842 21.8733 71.4308 22.1467 71.6175 22.48C71.8042 22.8 71.8975 23.2 71.8975 23.68C71.8975 24.36 71.7575 24.9333 71.4775 25.4C71.2108 25.8533 70.8575 26.22 70.4175 26.5C69.9775 26.78 69.4708 26.9733 68.8975 27.08C68.3375 27.2 67.7642 27.26 67.1775 27.26C66.5775 27.26 65.9908 27.2 65.4175 27.08C64.8442 26.96 64.3308 26.76 63.8775 26.48C63.4375 26.2 63.0708 25.8333 62.7775 25.38C62.4975 24.9133 62.3442 24.3333 62.3175 23.64H65.0175ZM78.0597 28.28C77.753 29.12 77.3264 29.72 76.7797 30.08C76.233 30.44 75.473 30.62 74.4997 30.62C74.2064 30.62 73.913 30.6067 73.6197 30.58C73.3397 30.5667 73.053 30.5467 72.7597 30.52V28.18C73.0264 28.2067 73.2997 28.2333 73.5797 28.26C73.8597 28.2867 74.1397 28.2933 74.4197 28.28C74.793 28.24 75.0664 28.0933 75.2397 27.84C75.4264 27.5867 75.5197 27.3067 75.5197 27C75.5197 26.7733 75.4797 26.56 75.3997 26.36L71.7797 16.66H74.7997L77.1397 23.74H77.1797L79.4397 16.66H82.3797L78.0597 28.28Z" fill="url(#paint0_linear_320_233)"/>
<path d="M84.4508 18.98H89.1308C89.6774 18.98 90.1508 18.92 90.5508 18.8C90.9508 18.6667 91.2841 18.4933 91.5508 18.28C91.8174 18.0533 92.0174 17.7933 92.1508 17.5C92.2841 17.2067 92.3508 16.8933 92.3508 16.56C92.3508 14.7733 91.2774 13.88 89.1308 13.88H84.4508V18.98ZM83.0908 12.72H89.1308C89.7308 12.72 90.3041 12.78 90.8508 12.9C91.4108 13.0067 91.8974 13.2 92.3108 13.48C92.7374 13.7467 93.0774 14.1067 93.3308 14.56C93.5841 15 93.7108 15.5533 93.7108 16.22C93.7108 16.5933 93.6508 16.96 93.5308 17.32C93.4108 17.6667 93.2374 17.9867 93.0108 18.28C92.7974 18.56 92.5374 18.8 92.2308 19C91.9374 19.2 91.6041 19.34 91.2308 19.42V19.46C92.1508 19.58 92.8841 19.96 93.4308 20.6C93.9774 21.2267 94.2508 22.0067 94.2508 22.94C94.2508 23.1667 94.2308 23.4267 94.1908 23.72C94.1508 24 94.0708 24.2933 93.9508 24.6C93.8308 24.8933 93.6574 25.1867 93.4308 25.48C93.2041 25.7733 92.8974 26.0333 92.5108 26.26C92.1374 26.4733 91.6708 26.6533 91.1108 26.8C90.5641 26.9333 89.9041 27 89.1308 27H83.0908V12.72ZM84.4508 25.84H89.1308C89.6374 25.84 90.1174 25.8 90.5708 25.72C91.0241 25.6267 91.4241 25.4667 91.7708 25.24C92.1174 25.0133 92.3908 24.7133 92.5908 24.34C92.7908 23.9533 92.8908 23.4733 92.8908 22.9C92.8908 21.98 92.5641 21.2933 91.9108 20.84C91.2708 20.3733 90.3441 20.14 89.1308 20.14H84.4508V25.84ZM99.9506 17.44C99.3506 17.44 98.824 17.5667 98.3706 17.82C97.9173 18.0733 97.5373 18.4067 97.2306 18.82C96.9373 19.2333 96.7106 19.7067 96.5506 20.24C96.404 20.76 96.3306 21.2933 96.3306 21.84C96.3306 22.3867 96.404 22.9267 96.5506 23.46C96.7106 23.98 96.9373 24.4467 97.2306 24.86C97.5373 25.2733 97.9173 25.6067 98.3706 25.86C98.824 26.1133 99.3506 26.24 99.9506 26.24C100.551 26.24 101.077 26.1133 101.531 25.86C101.984 25.6067 102.357 25.2733 102.651 24.86C102.957 24.4467 103.184 23.98 103.331 23.46C103.491 22.9267 103.571 22.3867 103.571 21.84C103.571 21.2933 103.491 20.76 103.331 20.24C103.184 19.7067 102.957 19.2333 102.651 18.82C102.357 18.4067 101.984 18.0733 101.531 17.82C101.077 17.5667 100.551 17.44 99.9506 17.44ZM99.9506 16.38C100.737 16.38 101.431 16.5267 102.031 16.82C102.644 17.1133 103.157 17.5067 103.571 18C103.984 18.4933 104.297 19.0733 104.511 19.74C104.724 20.3933 104.831 21.0933 104.831 21.84C104.831 22.5867 104.724 23.2933 104.511 23.96C104.297 24.6133 103.984 25.1867 103.571 25.68C103.157 26.1733 102.644 26.5667 102.031 26.86C101.431 27.14 100.737 27.28 99.9506 27.28C99.164 27.28 98.464 27.14 97.8506 26.86C97.2506 26.5667 96.744 26.1733 96.3306 25.68C95.9173 25.1867 95.604 24.6133 95.3906 23.96C95.1773 23.2933 95.0706 22.5867 95.0706 21.84C95.0706 21.0933 95.1773 20.3933 95.3906 19.74C95.604 19.0733 95.9173 18.4933 96.3306 18C96.744 17.5067 97.2506 17.1133 97.8506 16.82C98.464 16.5267 99.164 16.38 99.9506 16.38ZM105.984 19.84C106.024 19.24 106.151 18.72 106.364 18.28C106.577 17.84 106.864 17.48 107.224 17.2C107.597 16.92 108.031 16.7133 108.524 16.58C109.017 16.4467 109.564 16.38 110.164 16.38C110.617 16.38 111.071 16.4267 111.524 16.52C111.977 16.6 112.384 16.76 112.744 17C113.104 17.24 113.397 17.58 113.624 18.02C113.851 18.4467 113.964 19.0067 113.964 19.7V25.18C113.964 25.6867 114.211 25.94 114.704 25.94C114.851 25.94 114.984 25.9133 115.104 25.86V26.92C114.957 26.9467 114.824 26.9667 114.704 26.98C114.597 26.9933 114.457 27 114.284 27C113.964 27 113.704 26.96 113.504 26.88C113.317 26.7867 113.171 26.66 113.064 26.5C112.957 26.34 112.884 26.1533 112.844 25.94C112.817 25.7133 112.804 25.4667 112.804 25.2H112.764C112.537 25.5333 112.304 25.8333 112.064 26.1C111.837 26.3533 111.577 26.5667 111.284 26.74C111.004 26.9133 110.677 27.0467 110.304 27.14C109.944 27.2333 109.511 27.28 109.004 27.28C108.524 27.28 108.071 27.22 107.644 27.1C107.231 26.9933 106.864 26.82 106.544 26.58C106.237 26.3267 105.991 26.0133 105.804 25.64C105.631 25.2533 105.544 24.8 105.544 24.28C105.544 23.56 105.704 23 106.024 22.6C106.344 22.1867 106.764 21.8733 107.284 21.66C107.817 21.4467 108.411 21.3 109.064 21.22C109.731 21.1267 110.404 21.04 111.084 20.96C111.351 20.9333 111.584 20.9 111.784 20.86C111.984 20.82 112.151 20.7533 112.284 20.66C112.417 20.5533 112.517 20.4133 112.584 20.24C112.664 20.0667 112.704 19.84 112.704 19.56C112.704 19.1333 112.631 18.7867 112.484 18.52C112.351 18.24 112.157 18.02 111.904 17.86C111.664 17.7 111.377 17.5933 111.044 17.54C110.724 17.4733 110.377 17.44 110.004 17.44C109.204 17.44 108.551 17.6333 108.044 18.02C107.537 18.3933 107.271 19 107.244 19.84H105.984ZM112.704 21.36H112.664C112.584 21.5067 112.431 21.6133 112.204 21.68C111.977 21.7467 111.777 21.7933 111.604 21.82C111.071 21.9133 110.517 22 109.944 22.08C109.384 22.1467 108.871 22.2533 108.404 22.4C107.937 22.5467 107.551 22.76 107.244 23.04C106.951 23.3067 106.804 23.6933 106.804 24.2C106.804 24.52 106.864 24.8067 106.984 25.06C107.117 25.3 107.291 25.5133 107.504 25.7C107.717 25.8733 107.964 26.0067 108.244 26.1C108.524 26.1933 108.811 26.24 109.104 26.24C109.584 26.24 110.044 26.1667 110.484 26.02C110.924 25.8733 111.304 25.66 111.624 25.38C111.957 25.1 112.217 24.76 112.404 24.36C112.604 23.96 112.704 23.5067 112.704 23V21.36ZM115.875 16.68H117.035V19.1H117.075C117.395 18.26 117.888 17.6133 118.555 17.16C119.235 16.7067 120.042 16.5 120.975 16.54V17.8C120.402 17.7733 119.882 17.8533 119.415 18.04C118.948 18.2133 118.542 18.4667 118.195 18.8C117.862 19.1333 117.602 19.5333 117.415 20C117.228 20.4533 117.135 20.9533 117.135 21.5V27H115.875V16.68ZM130.312 27H129.152V25.04H129.112C128.979 25.3733 128.779 25.68 128.512 25.96C128.259 26.24 127.965 26.48 127.632 26.68C127.299 26.8667 126.939 27.0133 126.552 27.12C126.179 27.2267 125.805 27.28 125.432 27.28C124.645 27.28 123.959 27.14 123.372 26.86C122.799 26.5667 122.319 26.1733 121.932 25.68C121.545 25.1733 121.259 24.5933 121.072 23.94C120.885 23.2733 120.792 22.5733 120.792 21.84C120.792 21.1067 120.885 20.4133 121.072 19.76C121.259 19.0933 121.545 18.5133 121.932 18.02C122.319 17.5133 122.799 17.1133 123.372 16.82C123.959 16.5267 124.645 16.38 125.432 16.38C125.819 16.38 126.192 16.4267 126.552 16.52C126.925 16.6133 127.272 16.76 127.592 16.96C127.912 17.1467 128.192 17.38 128.432 17.66C128.685 17.94 128.879 18.2667 129.012 18.64H129.052V12.72H130.312V27ZM122.052 21.84C122.052 22.3733 122.112 22.9067 122.232 23.44C122.365 23.96 122.565 24.4267 122.832 24.84C123.112 25.2533 123.465 25.5933 123.892 25.86C124.319 26.1133 124.832 26.24 125.432 26.24C126.099 26.24 126.659 26.1133 127.112 25.86C127.579 25.5933 127.952 25.2533 128.232 24.84C128.525 24.4267 128.732 23.96 128.852 23.44C128.985 22.9067 129.052 22.3733 129.052 21.84C129.052 21.3067 128.985 20.78 128.852 20.26C128.732 19.7267 128.525 19.2533 128.232 18.84C127.952 18.4267 127.579 18.0933 127.112 17.84C126.659 17.5733 126.099 17.44 125.432 17.44C124.832 17.44 124.319 17.5733 123.892 17.84C123.465 18.0933 123.112 18.4267 122.832 18.84C122.565 19.2533 122.365 19.7267 122.232 20.26C122.112 20.78 122.052 21.3067 122.052 21.84Z" fill="url(#paint1_linear_320_233)"/>
<g clip-path="url(#clip0_320_233)">
<mask id="mask0_320_233" style="mask-type:alpha" maskUnits="userSpaceOnUse" x="6" y="6" width="24" height="24">
<path d="M30 18C30 24.6274 24.6274 30 18 30C11.3726 30 6 24.6274 6 18C6 11.3726 11.3726 6 18 6C24.6274 6 30 11.3726 30 18Z" fill="url(#paint2_linear_320_233)"/>
</mask>
<g mask="url(#mask0_320_233)">
<path d="M18 6C18.7364 6 19.3333 6.59695 19.3333 7.33333V15.3333C19.3333 16.0697 18.7364 16.6667 18 16.6667H7.33333C6.59696 16.6667 6 16.0697 6 15.3333V7.33333C6 6.59696 6.59696 6 7.33333 6H18ZM28.6667 6C29.4031 6 30 6.59695 30 7.33333V15.3333C30 16.0697 29.4031 16.6667 28.6667 16.6667H23.3333C22.5969 16.6667 22 16.0697 22 15.3333V7.33333C22 6.59695 22.5969 6 23.3333 6H28.6667ZM28.6667 19.3333C29.4031 19.3333 30 19.9303 30 20.6667V28.6667C30 29.4031 29.4031 30 28.6667 30H18C17.2636 30 16.6667 29.4031 16.6667 28.6667V20.6667C16.6667 19.9303 17.2636 19.3333 18 19.3333H28.6667ZM6 20.6667C6 19.9303 6.59696 19.3333 7.33333 19.3333H12.6667C13.4031 19.3333 14 19.9303 14 20.6667V28.6667C14 29.4031 13.4031 30 12.6667 30H7.33333C6.59696 30 6 29.4031 6 28.6667V20.6667Z" fill="url(#paint3_linear_320_233)"/>
</g>
</g>
<defs>
<linearGradient id="paint0_linear_320_233" x1="37" y1="19" x2="132" y2="19" gradientUnits="userSpaceOnUse">
<stop stop-color="#FF8A4C"/>
<stop offset="1" stop-color="#F05252"/>
</linearGradient>
<linearGradient id="paint1_linear_320_233" x1="37" y1="19" x2="132" y2="19" gradientUnits="userSpaceOnUse">
<stop stop-color="#76A9FA"/>
<stop offset="1" stop-color="#6875F5"/>
</linearGradient>
<linearGradient id="paint2_linear_320_233" x1="6" y1="18" x2="30" y2="18" gradientUnits="userSpaceOnUse">
<stop stop-color="#FF8A4C"/>
<stop offset="1" stop-color="#F05252"/>
</linearGradient>
<linearGradient id="paint3_linear_320_233" x1="6" y1="18" x2="30" y2="18" gradientUnits="userSpaceOnUse">
<stop stop-color="#FF8A4C"/>
<stop offset="1" stop-color="#F05252"/>
</linearGradient>
<clipPath id="clip0_320_233">
<rect width="24" height="24" fill="white" transform="translate(6 6)"/>
</clipPath>
</defs>
</svg>
