<svg width="120" height="120" viewBox="0 0 120 120" fill="none" xmlns="http://www.w3.org/2000/svg">
<path d="M60 15C62.7615 15 65 17.2385 65 20V50C65 52.7615 62.7615 55 60 55H20C17.2386 55 15 52.7615 15 50V20C15 17.2386 17.2386 15 20 15H60ZM100 15C102.761 15 105 17.2385 105 20V50C105 52.7615 102.761 55 100 55H80C77.2385 55 75 52.7615 75 50V20C75 17.2385 77.2385 15 80 15H100ZM100 65C102.761 65 105 67.2385 105 70V100C105 102.761 102.761 105 100 105H60C57.2385 105 55 102.761 55 100V70C55 67.2385 57.2385 65 60 65H100ZM15 70C15 67.2385 17.2386 65 20 65H40C42.7614 65 45 67.2385 45 70V100C45 102.761 42.7614 105 40 105H20C17.2386 105 15 102.761 15 100V70Z" fill="white"/>
</svg>
